<svg id="Capa_1" data-name="Capa 1" xmlns="http://www.w3.org/2000/svg" xmlns:xlink="http://www.w3.org/1999/xlink" viewBox="0 0 235.83 280.79"><defs><linearGradient id="Degradado_sin_nombre_19" x1="117.27" y1="262.89" x2="117.27" y2="80.89" gradientUnits="userSpaceOnUse"><stop offset="0" stop-color="#d99799"/><stop offset="0.03" stop-color="#c88283"/><stop offset="0.07" stop-color="#b76d6d"/><stop offset="0.12" stop-color="#a95d5c"/><stop offset="0.19" stop-color="#a05151"/><stop offset="0.27" stop-color="#9a4b4a"/><stop offset="0.51" stop-color="#994948"/></linearGradient><linearGradient id="Degradado_sin_nombre_4" x1="87.14" y1="180.41" x2="87.14" y2="60.9" gradientUnits="userSpaceOnUse"><stop offset="0.19" stop-color="#994a49"/><stop offset="0.26" stop-color="#893536"/><stop offset="0.36" stop-color="#781e22"/><stop offset="0.47" stop-color="#6c0d13"/><stop offset="0.59" stop-color="#64030b"/><stop offset="0.75" stop-color="#620008"/></linearGradient></defs><path d="M207.82,156a.28.28,0,0,1-.44-.34c1.73-3.87,1.87-6.07,1.87-10.35V105.19L209,22.86H198l.21,82.33v40.15a24.28,24.28,0,0,1-.72,6,52.21,52.21,0,0,1-1.7,5.24.47.47,0,0,1-.54.31.48.48,0,0,1-.4-.48l.3-45.69.09-87.88h-11s.26,62.8.29,84,0,43-.09,45.41a5.68,5.68,0,0,1-.54,2.13,9.59,9.59,0,0,1-1.22,1.9,1.57,1.57,0,0,1-2.07.37,1.64,1.64,0,0,1-.75-2,31.08,31.08,0,0,0,1.2-4.72,30.21,30.21,0,0,0,.42-5V104.81l-.2-82.32h-11l.2,82.32V145a39.83,39.83,0,0,1-.41,6,42.87,42.87,0,0,1-1.17,5.31.66.66,0,0,1-1.29-.17v-16.8l.06-37.32-.15-79.5h-11s.2,64.22.2,86.52V154.9a2.44,2.44,0,0,1,0,.27c0,.09,0,.18,0,.28a1.29,1.29,0,0,1-1.45,1.18,1.36,1.36,0,0,1-1.3-1.39c0-3.25,0-7.43,0-10.88s0-6.19,0-6.56V101.34l-.18-78.63h-11l.2,81.27V147.8c0,2.61,0,5.83,0,8.41a.63.63,0,0,1-.57.64.64.64,0,0,1-.72-.48,40.79,40.79,0,0,1-1.07-5.23,43.65,43.65,0,0,1-.35-5.9l0-40.18-.23-82.35h-11l.2,76.57v34.4l.39,10.91.38,10.92a1.31,1.31,0,0,1-1.08,1.36,1.28,1.28,0,0,1-1.5-.82,14.66,14.66,0,0,1-.69-2.76,20.69,20.69,0,0,1-.22-3.13V107.38l-.21-84.95h-11l.21,89.95v47.78a23.9,23.9,0,0,0,1.76,9.12,25.68,25.68,0,0,0,4.29,7,6.62,6.62,0,0,1,1.55,4.27,13.23,13.23,0,0,1-1,5l0,.05,0,.05a6.44,6.44,0,0,1-5.81,4.13,6.19,6.19,0,0,1-6-3.68,20.28,20.28,0,0,1-1.67-10.51v-.23l.77-7.55.76-7.56V112.4l-.2-90H99l.2,90v47.78l-.32,2.09-.31,2.08a71.75,71.75,0,0,1-2.57,11,72.83,72.83,0,0,1-4.2,10.41,3.82,3.82,0,0,1-4.82,2,3.91,3.91,0,0,1-2.63-4.54,29.58,29.58,0,0,1,2.38-7.27,71.87,71.87,0,0,0,7-31V104.75l-.21-82.32h-11l.21,82.32v40.16a43.93,43.93,0,0,1-.37,6.05,41.42,41.42,0,0,1-1.1,5.38.62.62,0,0,1-.7.46.6.6,0,0,1-.55-.62v-7c0-2.14,0-3.75,0-3.89L80,105l-.23-82.52h-11L69,105.72v41.12c0,1.3,0,2.83-.13,4.44s-.21,3.27-.38,4.86a.72.72,0,0,1-.72.67.73.73,0,0,1-.76-.63c-.25-1.42-.44-2.81-.56-4.25s-.19-2.91-.19-4.51V106L66,22.49H55l.21,82.4v51.52a.54.54,0,0,1-.49.55.55.55,0,0,1-.61-.43,59,59,0,0,1-1.24-7,59.88,59.88,0,0,1-.43-7.1V103.56l-.2-81.07h-11l.2,81.07v38.89a127.08,127.08,0,0,0,1.23,18.75,67.63,67.63,0,0,0,5,17.81,3.12,3.12,0,0,1-4.24,4.07,23.28,23.28,0,0,1-6.94-4.79,9,9,0,0,1-2.29-7.59c.48-3.74.92-7.51,1.24-11s.51-6.62.51-9.12v-43l-.2-85.17h-11L25,103v38.32c0,1.77-.12,4.17-.31,6.87s-.48,5.67-.8,8.59a.37.37,0,0,1-.73,0c-.5-7.75-.77-24.37-.84-42.23s-.14-79.16.17-91.92L17,22.43l-5.5-.14c0,.1.09,54.72,0,69.69s-.18,32.47-.12,42.69c0,6.1.13,11.43.25,16.09s.28,8.63.47,12.05a44.14,44.14,0,0,0,16.15,31.85l12.2,10,12.21,10A44.18,44.18,0,0,1,68.8,248.8v18.31h76.36V204.6a10.74,10.74,0,0,1,4.74-8.91h0l0,0a37.78,37.78,0,0,1,10.37-4.82,25.36,25.36,0,0,1,4.65-1.29c4.5-.56,17.46-.83,22.46-2.12,8.28-2.13,17.23-8.2,24.11-16s11.7-17.23,11.7-26.12V105.19L223,22.86H212l.21,82.33v43.62a7.34,7.34,0,0,1-2.43,5.44Z" style="fill:url(#Degradado_sin_nombre_19)"/><path d="M84.33,183.18a29.58,29.58,0,0,1,2.38-7.27,71.87,71.87,0,0,0,7-31V104.75l-.21-82.32h-11l.21,82.32v40.16a43.93,43.93,0,0,1-.37,6.05,41.42,41.42,0,0,1-1.1,5.38.62.62,0,0,1-.7.46Z" style="fill:url(#Degradado_sin_nombre_4)"/><text transform="translate(95.29 242.09)" style="font-size:8px;fill:#fff;font-family:BarlowSemiCondensed-SemiBoldItalic, Barlow Semi Condensed;font-weight:600;font-style:italic;letter-spacing:-0.02294921875em">F<tspan x="3.61" y="0" style="letter-spacing:0.0098876953125em">amilia</tspan><tspan style="letter-spacing:0.010009765625em"><tspan x="-0.74" y="7">Gruidae</tspan></tspan></text><text transform="matrix(-0.84, -0.54, 0.54, -0.84, 41.5, 187.34)" style="font-size:8px;fill:#fff;font-family:BarlowSemiCondensed-SemiBoldItalic, Barlow Semi Condensed;font-weight:600;font-style:italic">B</text><text transform="matrix(-0.84, -0.54, 0.54, -0.84, 37.79, 184.93)" style="font-size:8px;fill:#fff;font-family:BarlowSemiCondensed-SemiBoldItalic, Barlow Semi Condensed;font-weight:600;font-style:italic">a</text><text transform="translate(34.33 182.75) rotate(-146.44)" style="font-size:8px;fill:#fff;font-family:BarlowSemiCondensed-SemiBoldItalic, Barlow Semi Condensed;font-weight:600;font-style:italic">l</text><text transform="matrix(-0.72, -0.7, 0.7, -0.72, 33.07, 182.06)" style="font-size:8px;fill:#fff;font-family:BarlowSemiCondensed-SemiBoldItalic, Barlow Semi Condensed;font-weight:600;font-style:italic">e</text><text transform="translate(30.64 179.76) rotate(-123.11)" style="font-size:8px;fill:#fff;font-family:BarlowSemiCondensed-SemiBoldItalic, Barlow Semi Condensed;font-weight:600;font-style:italic">a</text><text transform="translate(28.67 176.64) rotate(-113.77)" style="font-size:8px;fill:#fff;font-family:BarlowSemiCondensed-SemiBoldItalic, Barlow Semi Condensed;font-weight:600;font-style:italic">r</text><text transform="translate(27.63 174.24) rotate(-108.45)" style="font-size:8px;fill:#fff;font-family:BarlowSemiCondensed-SemiBoldItalic, Barlow Semi Condensed;font-weight:600;font-style:italic">i</text><text transform="translate(27.03 172.58) rotate(-102.93)" style="font-size:8px;fill:#fff;font-family:BarlowSemiCondensed-SemiBoldItalic, Barlow Semi Condensed;font-weight:600;font-style:italic">c</text><text transform="translate(26.21 169.04) rotate(-96.67)" style="font-size:8px;fill:#fff;font-family:BarlowSemiCondensed-SemiBoldItalic, Barlow Semi Condensed;font-weight:600;font-style:italic">a</text><text transform="translate(71.19 192.65) rotate(-81.35)" style="font-size:8px;fill:#fff;font-family:BarlowSemiCondensed-SemiBoldItalic, Barlow Semi Condensed;font-weight:600;font-style:italic">A</text><text transform="translate(71.87 188.08) rotate(-84.21)" style="font-size:8px;fill:#fff;font-family:BarlowSemiCondensed-SemiBoldItalic, Barlow Semi Condensed;font-weight:600;font-style:italic">n</text><text transform="matrix(0.07, -1, 1, 0.07, 72.26, 184.12)" style="font-size:8px;fill:#fff;font-family:BarlowSemiCondensed-SemiBoldItalic, Barlow Semi Condensed;font-weight:600;font-style:italic">t</text><text transform="matrix(0.05, -1, 1, 0.05, 72.44, 181.45)" style="font-size:8px;fill:#fff;font-family:BarlowSemiCondensed-SemiBoldItalic, Barlow Semi Condensed;font-weight:600;font-style:italic">i</text><text transform="matrix(0.03, -1, 1, 0.03, 72.55, 179.49)" style="font-size:8px;fill:#fff;font-family:BarlowSemiCondensed-SemiBoldItalic, Barlow Semi Condensed;font-weight:600;font-style:italic">g</text><text transform="translate(72.66 175.48) rotate(-91.02)" style="font-size:8px;fill:#fff;font-family:BarlowSemiCondensed-SemiBoldItalic, Barlow Semi Condensed;font-weight:600;font-style:italic">o</text><text transform="matrix(-0.07, -1, 1, -0.07, 72.58, 171.4)" style="font-size:8px;fill:#fff;font-family:BarlowSemiCondensed-SemiBoldItalic, Barlow Semi Condensed;font-weight:600;font-style:italic">n</text><text transform="translate(72.31 167.39) rotate(-96.6)" style="font-size:8px;fill:#fff;font-family:BarlowSemiCondensed-SemiBoldItalic, Barlow Semi Condensed;font-weight:600;font-style:italic">e</text><text transform="matrix(0.28, -0.96, 0.96, 0.28, 104.24, 185.77)" style="font-size:8px;fill:#fff;font-family:BarlowSemiCondensed-SemiBoldItalic, Barlow Semi Condensed;font-weight:600;font-style:italic">L</text><text transform="translate(105.36 181.79) rotate(-79.02)" style="font-size:8px;fill:#fff;font-family:BarlowSemiCondensed-SemiBoldItalic, Barlow Semi Condensed;font-weight:600;font-style:italic">e</text><text transform="translate(106.11 177.86) rotate(-82.6)" style="font-size:8px;fill:#fff;font-family:BarlowSemiCondensed-SemiBoldItalic, Barlow Semi Condensed;font-weight:600;font-style:italic">u</text><text transform="matrix(0.08, -1, 1, 0.08, 106.62, 173.88)" style="font-size:8px;fill:#fff;font-family:BarlowSemiCondensed-SemiBoldItalic, Barlow Semi Condensed;font-weight:600;font-style:italic">c</text><text transform="translate(106.93 170.02) rotate(-87.45)" style="font-size:8px;fill:#fff;font-family:BarlowSemiCondensed-SemiBoldItalic, Barlow Semi Condensed;font-weight:600;font-style:italic">o</text><text transform="translate(107.1 166.01) rotate(-88.99)" style="font-size:8px;fill:#fff;font-family:BarlowSemiCondensed-SemiBoldItalic, Barlow Semi Condensed;font-weight:600;font-style:italic">g</text><text transform="translate(107.17 162.15) rotate(-88.66)" style="font-size:8px;fill:#fff;font-family:BarlowSemiCondensed-SemiBoldItalic, Barlow Semi Condensed;font-weight:600;font-style:italic">e</text><text transform="matrix(0.03, -1, 1, 0.03, 107.26, 158.35)" style="font-size:8px;fill:#fff;font-family:BarlowSemiCondensed-SemiBoldItalic, Barlow Semi Condensed;font-weight:600;font-style:italic">r</text><text transform="translate(107.33 155.69) rotate(-88.16)" style="font-size:8px;fill:#fff;font-family:BarlowSemiCondensed-SemiBoldItalic, Barlow Semi Condensed;font-weight:600;font-style:italic">a</text><text transform="matrix(0.04, -1, 1, 0.04, 107.45, 151.81)" style="font-size:8px;fill:#fff;font-family:BarlowSemiCondensed-SemiBoldItalic, Barlow Semi Condensed;font-weight:600;font-style:italic">n</text><text transform="translate(107.6 147.96) rotate(-87.6)" style="font-size:8px;fill:#fff;font-family:BarlowSemiCondensed-SemiBoldItalic, Barlow Semi Condensed;font-weight:600;font-style:italic">u</text><text transform="translate(147.85 177.37) rotate(-63.63)" style="font-size:8px;fill:#fff;font-family:BarlowSemiCondensed-SemiBoldItalic, Barlow Semi Condensed;font-weight:600;font-style:italic">G</text><text transform="translate(149.71 173.62) rotate(-63.36)" style="font-size:8px;fill:#fff;font-family:BarlowSemiCondensed-SemiBoldItalic, Barlow Semi Condensed;font-weight:600;font-style:italic">r</text><text transform="matrix(0.43, -0.9, 0.9, 0.43, 151.01, 171.12)" style="font-size:8px;fill:#fff;font-family:BarlowSemiCondensed-SemiBoldItalic, Barlow Semi Condensed;font-weight:600;font-style:italic">u</text><text transform="matrix(0.3, -0.96, 0.96, 0.3, 152.8, 167.22)" style="font-size:8px;fill:#fff;font-family:BarlowSemiCondensed-SemiBoldItalic, Barlow Semi Condensed;font-weight:600;font-style:italic">s</text><text transform="translate(33.01 157.29) rotate(-90)" style="font-size:7.5px;fill:#fff;font-family:BarlowSemiCondensed-SemiBoldItalic, Barlow Semi Condensed;font-weight:600;font-style:italic">Grulla <tspan x="18.19" y="0" style="letter-spacing:-0.0039713541666666664em">C</tspan><tspan x="22.03" y="0">o</tspan><tspan x="25.63" y="0" style="letter-spacing:-0.0080078125em">r</tspan><tspan x="28.09" y="0">onada de Cuello neg</tspan><tspan x="85.9" y="0" style="letter-spacing:-0.013932291666666667em">r</tspan><tspan x="88.31" y="0">a </tspan><tspan x="93.35" y="0" style="fill:#bcbec0">(</tspan><tspan x="95.52" y="0" style="fill:#bcbec0;letter-spacing:-0.012955729166666667em">P</tspan><tspan x="99.25" y="0" style="fill:#bcbec0">obl. 4</tspan><tspan x="115.14" y="0" style="fill:#bcbec0;letter-spacing:-0.0529296875em">7</tspan><tspan x="117.94" y="0" style="fill:#bcbec0;letter-spacing:-0.033984375em">.</tspan><tspan x="119.56" y="0" style="fill:#bcbec0">000)</tspan><tspan x="132.62" y="0" style="letter-spacing:-0.00006510416666666667em"> </tspan></text><text transform="translate(19.49 152.42) rotate(-90)" style="font-size:7.5px;fill:#fff;font-family:BarlowSemiCondensed-SemiBoldItalic, Barlow Semi Condensed;font-weight:600;font-style:italic">Grulla <tspan x="18.19" y="0" style="letter-spacing:-0.004166666666666667em">C</tspan><tspan x="22.03" y="0" style="letter-spacing:0.00013020833333333333em">o</tspan><tspan x="25.63" y="0" style="letter-spacing:-0.008072916666666667em">r</tspan><tspan x="28.09" y="0">onada de Cuello gris </tspan><tspan x="87.75" y="0" style="fill:#bcbec0;letter-spacing:0.00013020833333333333em">(</tspan><tspan x="89.92" y="0" style="fill:#bcbec0;letter-spacing:-0.013020833333333334em">P</tspan><tspan x="93.64" y="0" style="fill:#bcbec0">obl. 22.300) </tspan></text><text transform="translate(49.31 121.41) rotate(-90)" style="font-size:7.5px;fill:#fff;font-family:BarlowSemiCondensed-SemiBoldItalic, Barlow Semi Condensed;font-weight:600;font-style:italic">Grulla <tspan x="18.19" y="0" style="letter-spacing:-0.005078125em">C</tspan><tspan x="22.03" y="0">anadiense</tspan><tspan x="51.93" y="0" xml:space="preserve" style="fill:#bcbec0;letter-spacing:-0.00013020833333333333em"> (</tspan><tspan x="55.55" y="0" style="fill:#bcbec0;letter-spacing:-0.013020833333333334em">P</tspan><tspan x="59.28" y="0" style="fill:#bcbec0">obl. 200</tspan><tspan x="82.21" y="0" style="fill:#bcbec0;letter-spacing:-0.033984375em">.</tspan><tspan x="83.83" y="0" style="fill:#bcbec0">000)</tspan></text><text transform="translate(63.01 99.14) rotate(-90)" style="font-size:7.5px;fill:#fff;font-family:BarlowSemiCondensed-SemiBoldItalic, Barlow Semi Condensed;font-weight:600;font-style:italic">Grulla Sarus <tspan x="36.29" y="0" style="fill:#bcbec0">(</tspan><tspan x="38.46" y="0" style="fill:#bcbec0;letter-spacing:-0.013020833333333334em">P</tspan><tspan x="42.19" y="0" style="fill:#bcbec0;letter-spacing:0.00013020833333333333em">obl. 15</tspan><tspan x="60" y="0" style="fill:#bcbec0;letter-spacing:-0.033984375em">.</tspan><tspan x="61.62" y="0" style="fill:#bcbec0">000)</tspan></text><text transform="translate(77.25 106.2) rotate(-90)" style="font-size:7.5px;fill:#fff;font-family:BarlowSemiCondensed-SemiBoldItalic, Barlow Semi Condensed;font-weight:600;font-style:italic">Grulla B<tspan x="22.13" y="0" style="letter-spacing:-0.008072916666666667em">r</tspan><tspan x="24.58" y="0" style="letter-spacing:0.00013020833333333333em">olga </tspan><tspan x="38.39" y="0" style="fill:#bcbec0">(</tspan><tspan x="40.56" y="0" style="fill:#bcbec0;letter-spacing:-0.013020833333333334em">P</tspan><tspan x="44.29" y="0" style="fill:#bcbec0;letter-spacing:0.00013020833333333333em">obl. 800</tspan><tspan x="67.19" y="0" style="fill:#bcbec0;letter-spacing:-0.033984375em">.</tspan><tspan x="68.81" y="0" style="fill:#bcbec0">000)</tspan></text><text transform="translate(90.93 136.88) rotate(-90)" style="font-size:7.5px;fill:#fff;font-family:BarlowSemiCondensed-SemiBoldItalic, Barlow Semi Condensed;font-weight:600;font-style:italic">GRUL<tspan x="15.41" y="0" style="letter-spacing:0.026041666666666668em">L</tspan><tspan x="19.19" y="0">A C</tspan><tspan x="28.64" y="0" style="letter-spacing:-0.00390625em">U</tspan><tspan x="32.66" y="0" style="letter-spacing:-0.00013020833333333333em">EL</tspan><tspan x="39.98" y="0" style="letter-spacing:-0.0049479166666666664em">L</tspan><tspan x="43.53" y="0">O B</tspan><tspan x="52.89" y="0" style="letter-spacing:0.026041666666666668em">L</tspan><tspan x="56.67" y="0" xml:space="preserve">ANCO  (</tspan><tspan x="77.95" y="0" style="letter-spacing:-0.013020833333333334em">P</tspan><tspan x="81.68" y="0" style="letter-spacing:0.00013020833333333333em">obl. 4.500)</tspan></text><text transform="translate(107.4 111.46) rotate(-90)" style="font-size:7.5px;fill:#fff;font-family:BarlowSemiCondensed-SemiBoldItalic, Barlow Semi Condensed;font-weight:600;font-style:italic">Grulla Siberiana <tspan x="47.19" y="0" style="fill:#bcbec0">(</tspan><tspan x="49.36" y="0" style="fill:#bcbec0;letter-spacing:-0.013020833333333334em">P</tspan><tspan x="53.08" y="0" style="fill:#bcbec0">obl. 20</tspan><tspan x="72.39" y="0" style="fill:#bcbec0;letter-spacing:-0.033984375em">.</tspan><tspan x="74.01" y="0" style="fill:#bcbec0">000)</tspan></text><text transform="translate(123.47 107.71) rotate(-90)" style="font-size:7.5px;fill:#fff;font-family:BarlowSemiCondensed-SemiBoldItalic, Barlow Semi Condensed;font-weight:600;font-style:italic">Grulla <tspan x="18.19" y="0" style="letter-spacing:-0.004166666666666667em">C</tspan><tspan x="22.03" y="0" style="letter-spacing:0.00013020833333333333em">omún </tspan><tspan x="39.65" y="0" style="fill:#bcbec0;letter-spacing:0.00013020833333333333em">(</tspan><tspan x="41.82" y="0" style="fill:#bcbec0;letter-spacing:-0.013020833333333334em">P</tspan><tspan x="45.55" y="0" style="fill:#bcbec0">obl. 600</tspan><tspan x="68.42" y="0" style="fill:#bcbec0;letter-spacing:-0.033984375em">.</tspan><tspan x="70.04" y="0" style="fill:#bcbec0">000)</tspan></text><text transform="translate(136.75 109.16) rotate(-90)" style="font-size:7.5px;fill:#fff;font-family:BarlowSemiCondensed-SemiBoldItalic, Barlow Semi Condensed;font-weight:600;font-style:italic">Grulla <tspan x="18.19" y="0" style="letter-spacing:-0.04114583333333333em">T</tspan><tspan x="21.64" y="0" style="letter-spacing:-0.007942708333333333em">r</tspan><tspan x="24.09" y="0">omp</tspan><tspan x="36.75" y="0" style="letter-spacing:-0.0069010416666666664em">e</tspan><tspan x="40.21" y="0" style="letter-spacing:-0.005078125em">t</tspan><tspan x="42.56" y="0">e</tspan><tspan x="46.08" y="0" style="letter-spacing:-0.013932291666666667em">r</tspan><tspan x="48.49" y="0">a </tspan><tspan x="53.53" y="0" style="fill:#bcbec0;letter-spacing:0.00013020833333333333em">(</tspan><tspan x="55.69" y="0" style="fill:#bcbec0;letter-spacing:-0.013020833333333334em">P</tspan><tspan x="59.42" y="0" style="fill:#bcbec0">obl. 249)</tspan></text><text transform="translate(150.77 124.96) rotate(-90)" style="font-size:7.5px;fill:#fff;font-family:BarlowSemiCondensed-SemiBoldItalic, Barlow Semi Condensed;font-weight:600;font-style:italic">Grulla de Cuello neg<tspan x="56.62" y="0" style="letter-spacing:-0.0140625em">r</tspan><tspan x="59.02" y="0">a </tspan><tspan x="64.06" y="0" style="fill:#bcbec0;letter-spacing:0.00013020833333333333em">(</tspan><tspan x="66.23" y="0" style="fill:#bcbec0;letter-spacing:-0.013020833333333334em">P</tspan><tspan x="69.96" y="0" style="fill:#bcbec0">obl. 6.800)</tspan></text><text transform="translate(164.43 117.72) rotate(-90)" style="font-size:7.5px;fill:#fff;font-family:BarlowSemiCondensed-SemiBoldItalic, Barlow Semi Condensed;font-weight:600;font-style:italic">Grulla de Manchuria <tspan x="58.29" y="0" style="fill:#bcbec0">(</tspan><tspan x="60.46" y="0" style="fill:#bcbec0;letter-spacing:-0.013020833333333334em">P</tspan><tspan x="64.18" y="0" style="fill:#bcbec0;letter-spacing:0.00013020833333333333em">obl. 1.830)</tspan></text><text transform="translate(178.15 117.12) rotate(-90)" style="font-size:7.5px;fill:#fff;font-family:BarlowSemiCondensed-SemiBoldItalic, Barlow Semi Condensed;font-weight:600;font-style:italic">Grulla <tspan x="18.19" y="0" style="letter-spacing:-0.005078125em">C</tspan><tspan x="22.03" y="0">arunculada </tspan><tspan x="56.1" y="0" style="fill:#bcbec0">(</tspan><tspan x="58.27" y="0" style="fill:#bcbec0;letter-spacing:-0.013020833333333334em">P</tspan><tspan x="61.99" y="0" style="fill:#bcbec0">obl. 6.300)</tspan></text><text transform="translate(191.91 113.82) rotate(-90)" style="font-size:7.5px;fill:#fff;font-family:BarlowSemiCondensed-SemiBoldItalic, Barlow Semi Condensed;font-weight:600;font-style:italic">Grulla del <tspan x="28.36" y="0" style="letter-spacing:-0.007942708333333333em">P</tspan><tspan x="32.12" y="0">a</tspan><tspan x="35.71" y="0" style="letter-spacing:-0.0140625em">r</tspan><tspan x="38.11" y="0">aíso </tspan><tspan x="51.6" y="0" style="fill:#bcbec0;letter-spacing:0.00013020833333333333em">(</tspan><tspan x="53.77" y="0" style="fill:#bcbec0;letter-spacing:-0.013020833333333334em">P</tspan><tspan x="57.49" y="0" style="fill:#bcbec0">obl. 1</tspan><tspan x="71.83" y="0" style="fill:#bcbec0;letter-spacing:-0.052994791666666666em">7</tspan><tspan x="74.63" y="0" style="fill:#bcbec0;letter-spacing:-0.033984375em">.</tspan><tspan x="76.25" y="0" style="fill:#bcbec0">000)</tspan></text><text transform="translate(206.1 114.32) rotate(-90)" style="font-size:7.5px;fill:#fff;font-family:BarlowSemiCondensed-SemiBoldItalic, Barlow Semi Condensed;font-weight:600;font-style:italic">Grulla <tspan x="18.19" y="0" style="letter-spacing:-0.00703125em">D</tspan><tspan x="22.1" y="0">amisela </tspan><tspan x="46.25" y="0" style="fill:#bcbec0">(</tspan><tspan x="48.42" y="0" style="fill:#bcbec0;letter-spacing:-0.013020833333333334em">P</tspan><tspan x="52.15" y="0" style="fill:#bcbec0">obl. 240</tspan><tspan x="75.22" y="0" style="fill:#bcbec0;letter-spacing:-0.033984375em">.</tspan><tspan x="76.84" y="0" style="fill:#bcbec0">000)</tspan></text><text transform="translate(220.34 99.4) rotate(-90)" style="font-size:7.5px;fill:#fff;font-family:BarlowSemiCondensed-SemiBoldItalic, Barlow Semi Condensed;font-weight:600;font-style:italic">Grulla Monje <tspan x="36.49" y="0" style="fill:#bcbec0;letter-spacing:0.00013020833333333333em">(</tspan><tspan x="38.65" y="0" style="fill:#bcbec0;letter-spacing:-0.013020833333333334em">P</tspan><tspan x="42.38" y="0" style="fill:#bcbec0">obl. 15</tspan><tspan x="60.19" y="0" style="fill:#bcbec0;letter-spacing:-0.033984375em">.</tspan><tspan x="61.81" y="0" style="fill:#bcbec0">000)</tspan></text><polygon points="155.16 237.03 106.86 224.94 58.8 237.27 58.8 230.17 106.65 217.91 155.16 230.05 155.16 237.03" style="fill:#fff"/><text transform="translate(95.11 210.94)" style="font-size:8px;fill:#fff;font-family:BarlowSemiCondensed-SemiBoldItalic, Barlow Semi Condensed;font-weight:600;font-style:italic;letter-spacing:0.010009765625em">Géne<tspan x="15.76" y="0" style="letter-spacing:0.0020751953125em">r</tspan><tspan x="18.46" y="0">o</tspan></text></svg>